<mxfile host="app.diagrams.net" modified="2024-02-06T12:21:37.626Z" agent="Mozilla/5.0 (Windows NT 10.0; Win64; x64) AppleWebKit/537.36 (KHTML, like Gecko) Chrome/121.0.0.0 Safari/537.36" etag="HYMmMS3CBGoHjk3RPMKd" version="23.1.1" type="device">
  <diagram name="Page-1" id="7_pkK_ZFBRCX6aIoR1Mh">
    <mxGraphModel dx="3469" dy="2660" grid="1" gridSize="10" guides="1" tooltips="1" connect="1" arrows="1" fold="1" page="1" pageScale="1" pageWidth="827" pageHeight="1169" math="0" shadow="0">
      <root>
        <mxCell id="0" />
        <mxCell id="1" parent="0" />
        <mxCell id="3le4Wn7NQjYUxHa7ABNp-4" value="" style="rounded=0;whiteSpace=wrap;html=1;" parent="1" vertex="1">
          <mxGeometry x="230" y="-20" width="2280" height="1040" as="geometry" />
        </mxCell>
        <mxCell id="3le4Wn7NQjYUxHa7ABNp-5" value="" style="rounded=0;whiteSpace=wrap;html=1;rotation=90;strokeWidth=1;fontSize=10;fontStyle=0" parent="1" vertex="1">
          <mxGeometry x="909.38" y="223.13" width="941.25" height="580" as="geometry" />
        </mxCell>
        <mxCell id="3le4Wn7NQjYUxHa7ABNp-6" value="&lt;span style=&quot;font-size: 10px;&quot;&gt;User&lt;/span&gt;" style="shape=umlActor;verticalLabelPosition=bottom;verticalAlign=top;html=1;outlineConnect=0;strokeWidth=1;fontSize=10;fontStyle=0" parent="1" vertex="1">
          <mxGeometry x="340" y="497.5" width="140" height="210" as="geometry" />
        </mxCell>
        <mxCell id="3le4Wn7NQjYUxHa7ABNp-7" style="edgeStyle=entityRelationEdgeStyle;rounded=0;orthogonalLoop=1;jettySize=auto;html=1;exitX=1;exitY=0.3333333333333333;exitDx=0;exitDy=0;exitPerimeter=0;entryX=0;entryY=1;entryDx=0;entryDy=0;strokeWidth=1;fontSize=10;fontStyle=0" parent="1" source="3le4Wn7NQjYUxHa7ABNp-12" target="3le4Wn7NQjYUxHa7ABNp-26" edge="1">
          <mxGeometry relative="1" as="geometry" />
        </mxCell>
        <mxCell id="3le4Wn7NQjYUxHa7ABNp-8" style="edgeStyle=entityRelationEdgeStyle;rounded=0;orthogonalLoop=1;jettySize=auto;html=1;exitX=1;exitY=0.3333333333333333;exitDx=0;exitDy=0;exitPerimeter=0;entryX=0;entryY=0.5;entryDx=0;entryDy=0;strokeWidth=1;fontSize=10;fontStyle=0" parent="1" source="3le4Wn7NQjYUxHa7ABNp-12" target="3le4Wn7NQjYUxHa7ABNp-24" edge="1">
          <mxGeometry relative="1" as="geometry" />
        </mxCell>
        <mxCell id="3le4Wn7NQjYUxHa7ABNp-9" style="edgeStyle=entityRelationEdgeStyle;rounded=0;orthogonalLoop=1;jettySize=auto;html=1;exitX=1;exitY=0.3333333333333333;exitDx=0;exitDy=0;exitPerimeter=0;entryX=0;entryY=0.5;entryDx=0;entryDy=0;strokeWidth=1;fontSize=10;fontStyle=0" parent="1" source="3le4Wn7NQjYUxHa7ABNp-12" target="3le4Wn7NQjYUxHa7ABNp-31" edge="1">
          <mxGeometry relative="1" as="geometry" />
        </mxCell>
        <mxCell id="3le4Wn7NQjYUxHa7ABNp-10" style="edgeStyle=entityRelationEdgeStyle;rounded=0;orthogonalLoop=1;jettySize=auto;html=1;exitX=1;exitY=0.3333333333333333;exitDx=0;exitDy=0;exitPerimeter=0;entryX=0;entryY=0.5;entryDx=0;entryDy=0;strokeWidth=1;fontSize=10;fontStyle=0" parent="1" source="3le4Wn7NQjYUxHa7ABNp-12" target="3le4Wn7NQjYUxHa7ABNp-32" edge="1">
          <mxGeometry relative="1" as="geometry" />
        </mxCell>
        <mxCell id="3le4Wn7NQjYUxHa7ABNp-11" style="edgeStyle=entityRelationEdgeStyle;rounded=0;orthogonalLoop=1;jettySize=auto;html=1;exitX=1;exitY=0.3333333333333333;exitDx=0;exitDy=0;exitPerimeter=0;entryX=0;entryY=0.5;entryDx=0;entryDy=0;strokeWidth=1;fontSize=10;fontStyle=0" parent="1" source="3le4Wn7NQjYUxHa7ABNp-12" target="3le4Wn7NQjYUxHa7ABNp-25" edge="1">
          <mxGeometry relative="1" as="geometry" />
        </mxCell>
        <object label="&lt;span style=&quot;font-size: 10px;&quot;&gt;Registered User&lt;/span&gt;" placeholders="1" id="3le4Wn7NQjYUxHa7ABNp-12">
          <mxCell style="shape=umlActor;verticalLabelPosition=bottom;verticalAlign=top;html=1;outlineConnect=0;strokeWidth=1;comic=0;fontSize=10;fontStyle=0" parent="1" vertex="1">
            <mxGeometry x="710" y="707.5" width="140" height="210" as="geometry" />
          </mxCell>
        </object>
        <mxCell id="3le4Wn7NQjYUxHa7ABNp-13" style="edgeStyle=entityRelationEdgeStyle;rounded=0;orthogonalLoop=1;jettySize=auto;html=1;exitX=1;exitY=0.3333333333333333;exitDx=0;exitDy=0;exitPerimeter=0;strokeWidth=1;fontSize=10;fontStyle=0" parent="1" source="3le4Wn7NQjYUxHa7ABNp-15" target="3le4Wn7NQjYUxHa7ABNp-26" edge="1">
          <mxGeometry relative="1" as="geometry">
            <mxPoint x="1130" y="450" as="targetPoint" />
          </mxGeometry>
        </mxCell>
        <mxCell id="3le4Wn7NQjYUxHa7ABNp-14" style="edgeStyle=entityRelationEdgeStyle;rounded=0;orthogonalLoop=1;jettySize=auto;html=1;exitX=1;exitY=0.3333333333333333;exitDx=0;exitDy=0;exitPerimeter=0;entryX=0;entryY=0.5;entryDx=0;entryDy=0;strokeWidth=1;fontSize=10;fontStyle=0" parent="1" source="3le4Wn7NQjYUxHa7ABNp-15" target="3le4Wn7NQjYUxHa7ABNp-28" edge="1">
          <mxGeometry relative="1" as="geometry" />
        </mxCell>
        <mxCell id="3le4Wn7NQjYUxHa7ABNp-15" value="&lt;span style=&quot;font-size: 10px;&quot;&gt;Unregistered&lt;/span&gt;" style="shape=umlActor;verticalLabelPosition=bottom;verticalAlign=top;html=1;outlineConnect=0;strokeWidth=1;fontSize=10;fontStyle=0" parent="1" vertex="1">
          <mxGeometry x="710" y="287.5" width="140" height="210" as="geometry" />
        </mxCell>
        <mxCell id="3le4Wn7NQjYUxHa7ABNp-16" style="edgeStyle=entityRelationEdgeStyle;rounded=0;orthogonalLoop=1;jettySize=auto;html=1;exitX=0;exitY=0.3333333333333333;exitDx=0;exitDy=0;exitPerimeter=0;entryX=1;entryY=0.5;entryDx=0;entryDy=0;strokeWidth=1;fontSize=10;fontStyle=0" parent="1" source="3le4Wn7NQjYUxHa7ABNp-17" target="3le4Wn7NQjYUxHa7ABNp-38" edge="1">
          <mxGeometry relative="1" as="geometry">
            <Array as="points">
              <mxPoint x="1740" y="180" />
            </Array>
          </mxGeometry>
        </mxCell>
        <mxCell id="3le4Wn7NQjYUxHa7ABNp-17" value="Unregistered Admins" style="shape=umlActor;verticalLabelPosition=bottom;verticalAlign=top;html=1;outlineConnect=0;strokeWidth=1;fontSize=10;fontStyle=0" parent="1" vertex="1">
          <mxGeometry x="1900" y="62.5" width="140" height="210" as="geometry" />
        </mxCell>
        <mxCell id="3le4Wn7NQjYUxHa7ABNp-18" value="Admins" style="shape=umlActor;verticalLabelPosition=bottom;verticalAlign=top;html=1;outlineConnect=0;strokeWidth=1;fontSize=10;fontStyle=0" parent="1" vertex="1">
          <mxGeometry x="2300" y="370" width="140" height="210" as="geometry" />
        </mxCell>
        <mxCell id="3le4Wn7NQjYUxHa7ABNp-19" style="edgeStyle=entityRelationEdgeStyle;rounded=0;orthogonalLoop=1;jettySize=auto;html=1;exitX=0;exitY=0.3333333333333333;exitDx=0;exitDy=0;exitPerimeter=0;entryX=1;entryY=0.5;entryDx=0;entryDy=0;strokeWidth=1;fontSize=10;fontStyle=0" parent="1" source="3le4Wn7NQjYUxHa7ABNp-23" target="3le4Wn7NQjYUxHa7ABNp-36" edge="1">
          <mxGeometry relative="1" as="geometry" />
        </mxCell>
        <mxCell id="3le4Wn7NQjYUxHa7ABNp-20" style="edgeStyle=entityRelationEdgeStyle;rounded=0;orthogonalLoop=1;jettySize=auto;html=1;exitX=0;exitY=0.3333333333333333;exitDx=0;exitDy=0;exitPerimeter=0;entryX=1;entryY=0.5;entryDx=0;entryDy=0;strokeWidth=1;fontSize=10;fontStyle=0" parent="1" source="3le4Wn7NQjYUxHa7ABNp-23" target="3le4Wn7NQjYUxHa7ABNp-35" edge="1">
          <mxGeometry relative="1" as="geometry" />
        </mxCell>
        <mxCell id="3le4Wn7NQjYUxHa7ABNp-21" style="edgeStyle=entityRelationEdgeStyle;rounded=0;orthogonalLoop=1;jettySize=auto;html=1;exitX=0;exitY=0.3333333333333333;exitDx=0;exitDy=0;exitPerimeter=0;strokeWidth=1;fontSize=10;fontStyle=0" parent="1" source="3le4Wn7NQjYUxHa7ABNp-23" target="3le4Wn7NQjYUxHa7ABNp-34" edge="1">
          <mxGeometry relative="1" as="geometry" />
        </mxCell>
        <mxCell id="3le4Wn7NQjYUxHa7ABNp-22" style="edgeStyle=entityRelationEdgeStyle;rounded=0;orthogonalLoop=1;jettySize=auto;html=1;exitX=0;exitY=0.3333333333333333;exitDx=0;exitDy=0;exitPerimeter=0;entryX=1;entryY=0.5;entryDx=0;entryDy=0;strokeWidth=1;fontSize=10;fontStyle=0" parent="1" source="3le4Wn7NQjYUxHa7ABNp-23" target="3le4Wn7NQjYUxHa7ABNp-33" edge="1">
          <mxGeometry relative="1" as="geometry" />
        </mxCell>
        <mxCell id="3le4Wn7NQjYUxHa7ABNp-23" value="Registered Admins" style="shape=umlActor;verticalLabelPosition=bottom;verticalAlign=top;html=1;outlineConnect=0;strokeWidth=1;fontSize=10;fontStyle=0" parent="1" vertex="1">
          <mxGeometry x="1900" y="370" width="140" height="210" as="geometry" />
        </mxCell>
        <mxCell id="3le4Wn7NQjYUxHa7ABNp-24" value="Solve Quiz" style="ellipse;whiteSpace=wrap;html=1;strokeWidth=1;fontStyle=0;fontSize=10;" parent="1" vertex="1">
          <mxGeometry x="1160" y="585" width="120" height="80" as="geometry" />
        </mxCell>
        <mxCell id="3le4Wn7NQjYUxHa7ABNp-25" value="See Past Performance" style="ellipse;whiteSpace=wrap;html=1;strokeWidth=1;fontStyle=0;fontSize=10;" parent="1" vertex="1">
          <mxGeometry x="1160" y="707.5" width="120" height="80" as="geometry" />
        </mxCell>
        <mxCell id="3le4Wn7NQjYUxHa7ABNp-26" value="View Modules and Quizzes" style="ellipse;whiteSpace=wrap;html=1;strokeWidth=1;fontStyle=0;fontSize=10;" parent="1" vertex="1">
          <mxGeometry x="1160" y="320" width="115" height="70" as="geometry" />
        </mxCell>
        <mxCell id="3le4Wn7NQjYUxHa7ABNp-27" style="rounded=0;orthogonalLoop=1;jettySize=auto;html=1;exitX=0.5;exitY=1;exitDx=0;exitDy=0;entryX=0.5;entryY=0;entryDx=0;entryDy=0;strokeWidth=1;fontSize=10;fontStyle=0;dashed=1;" parent="1" source="3le4Wn7NQjYUxHa7ABNp-28" target="3le4Wn7NQjYUxHa7ABNp-31" edge="1">
          <mxGeometry relative="1" as="geometry" />
        </mxCell>
        <mxCell id="3le4Wn7NQjYUxHa7ABNp-28" value="Register" style="ellipse;whiteSpace=wrap;html=1;strokeWidth=1;fontStyle=0;fontSize=10;" parent="1" vertex="1">
          <mxGeometry x="1157.5" y="62.5" width="120" height="80" as="geometry" />
        </mxCell>
        <mxCell id="3le4Wn7NQjYUxHa7ABNp-29" style="edgeStyle=entityRelationEdgeStyle;rounded=0;orthogonalLoop=1;jettySize=auto;html=1;exitX=1;exitY=0.3333333333333333;exitDx=0;exitDy=0;exitPerimeter=0;entryX=0;entryY=0.3333333333333333;entryDx=0;entryDy=0;entryPerimeter=0;strokeWidth=1;fontSize=10;fontStyle=0" parent="1" source="3le4Wn7NQjYUxHa7ABNp-6" target="3le4Wn7NQjYUxHa7ABNp-15" edge="1">
          <mxGeometry relative="1" as="geometry" />
        </mxCell>
        <mxCell id="3le4Wn7NQjYUxHa7ABNp-30" style="edgeStyle=entityRelationEdgeStyle;rounded=0;orthogonalLoop=1;jettySize=auto;html=1;exitX=1;exitY=0.3333333333333333;exitDx=0;exitDy=0;exitPerimeter=0;entryX=0;entryY=0.3333333333333333;entryDx=0;entryDy=0;entryPerimeter=0;strokeWidth=1;fontSize=10;fontStyle=0" parent="1" source="3le4Wn7NQjYUxHa7ABNp-6" target="3le4Wn7NQjYUxHa7ABNp-12" edge="1">
          <mxGeometry relative="1" as="geometry" />
        </mxCell>
        <mxCell id="3le4Wn7NQjYUxHa7ABNp-31" value="Login" style="ellipse;whiteSpace=wrap;html=1;strokeWidth=1;fontStyle=0;fontSize=10;" parent="1" vertex="1">
          <mxGeometry x="1157.5" y="192.5" width="120" height="80" as="geometry" />
        </mxCell>
        <mxCell id="3le4Wn7NQjYUxHa7ABNp-32" value="Profile Management" style="ellipse;whiteSpace=wrap;html=1;strokeWidth=1;fontStyle=0;fontSize=10;" parent="1" vertex="1">
          <mxGeometry x="1157.5" y="820" width="135" height="80" as="geometry" />
        </mxCell>
        <mxCell id="3le4Wn7NQjYUxHa7ABNp-33" value="Profile Management" style="ellipse;whiteSpace=wrap;html=1;strokeWidth=1;fontStyle=0;fontSize=10;" parent="1" vertex="1">
          <mxGeometry x="1510" y="520" width="120" height="80" as="geometry" />
        </mxCell>
        <mxCell id="3le4Wn7NQjYUxHa7ABNp-34" value="View Analytics" style="ellipse;whiteSpace=wrap;html=1;strokeWidth=1;fontStyle=0;fontSize=10;" parent="1" vertex="1">
          <mxGeometry x="1510" y="410" width="120" height="80" as="geometry" />
        </mxCell>
        <mxCell id="3le4Wn7NQjYUxHa7ABNp-35" value="Manage Modules, Quiz and Questions" style="ellipse;whiteSpace=wrap;html=1;strokeWidth=1;fontStyle=0;fontSize=10;" parent="1" vertex="1">
          <mxGeometry x="1510" y="310" width="120" height="80" as="geometry" />
        </mxCell>
        <mxCell id="3le4Wn7NQjYUxHa7ABNp-36" value="Login" style="ellipse;whiteSpace=wrap;html=1;strokeWidth=1;fontStyle=0;fontSize=10;" parent="1" vertex="1">
          <mxGeometry x="1510" y="192.5" width="120" height="80" as="geometry" />
        </mxCell>
        <mxCell id="3le4Wn7NQjYUxHa7ABNp-37" style="rounded=0;orthogonalLoop=1;jettySize=auto;html=1;exitX=0.5;exitY=1;exitDx=0;exitDy=0;entryX=0.5;entryY=0;entryDx=0;entryDy=0;strokeWidth=1;fontSize=10;fontStyle=0" parent="1" source="3le4Wn7NQjYUxHa7ABNp-38" target="3le4Wn7NQjYUxHa7ABNp-36" edge="1">
          <mxGeometry relative="1" as="geometry" />
        </mxCell>
        <mxCell id="3le4Wn7NQjYUxHa7ABNp-38" value="Register" style="ellipse;whiteSpace=wrap;html=1;strokeWidth=1;fontStyle=0;fontSize=10;" parent="1" vertex="1">
          <mxGeometry x="1510" y="85" width="120" height="80" as="geometry" />
        </mxCell>
        <mxCell id="3le4Wn7NQjYUxHa7ABNp-39" style="edgeStyle=entityRelationEdgeStyle;rounded=0;orthogonalLoop=1;jettySize=auto;html=1;exitX=0;exitY=0.3333333333333333;exitDx=0;exitDy=0;exitPerimeter=0;entryX=1;entryY=0.3333333333333333;entryDx=0;entryDy=0;entryPerimeter=0;strokeWidth=1;fontSize=10;fontStyle=0" parent="1" source="3le4Wn7NQjYUxHa7ABNp-18" target="3le4Wn7NQjYUxHa7ABNp-23" edge="1">
          <mxGeometry relative="1" as="geometry" />
        </mxCell>
        <mxCell id="3le4Wn7NQjYUxHa7ABNp-40" style="edgeStyle=entityRelationEdgeStyle;rounded=0;orthogonalLoop=1;jettySize=auto;html=1;exitX=0;exitY=0.3333333333333333;exitDx=0;exitDy=0;exitPerimeter=0;entryX=1;entryY=0.3333333333333333;entryDx=0;entryDy=0;entryPerimeter=0;strokeWidth=1;fontSize=10;fontStyle=0" parent="1" source="3le4Wn7NQjYUxHa7ABNp-18" target="3le4Wn7NQjYUxHa7ABNp-17" edge="1">
          <mxGeometry relative="1" as="geometry" />
        </mxCell>
        <mxCell id="3le4Wn7NQjYUxHa7ABNp-41" style="edgeStyle=entityRelationEdgeStyle;rounded=0;orthogonalLoop=1;jettySize=auto;html=1;exitX=0;exitY=0.3333333333333333;exitDx=0;exitDy=0;exitPerimeter=0;entryX=1;entryY=0.5;entryDx=0;entryDy=0;" parent="1" source="3le4Wn7NQjYUxHa7ABNp-44" target="3le4Wn7NQjYUxHa7ABNp-45" edge="1">
          <mxGeometry relative="1" as="geometry" />
        </mxCell>
        <mxCell id="3le4Wn7NQjYUxHa7ABNp-42" style="edgeStyle=entityRelationEdgeStyle;rounded=0;orthogonalLoop=1;jettySize=auto;html=1;exitX=0;exitY=0.3333333333333333;exitDx=0;exitDy=0;exitPerimeter=0;" parent="1" source="3le4Wn7NQjYUxHa7ABNp-44" target="3le4Wn7NQjYUxHa7ABNp-46" edge="1">
          <mxGeometry relative="1" as="geometry" />
        </mxCell>
        <mxCell id="3le4Wn7NQjYUxHa7ABNp-43" style="edgeStyle=entityRelationEdgeStyle;rounded=0;orthogonalLoop=1;jettySize=auto;html=1;exitX=0;exitY=0.3333333333333333;exitDx=0;exitDy=0;exitPerimeter=0;" parent="1" source="3le4Wn7NQjYUxHa7ABNp-44" target="3le4Wn7NQjYUxHa7ABNp-47" edge="1">
          <mxGeometry relative="1" as="geometry" />
        </mxCell>
        <mxCell id="3le4Wn7NQjYUxHa7ABNp-44" value="Web Admin" style="shape=umlActor;verticalLabelPosition=bottom;verticalAlign=top;html=1;outlineConnect=0;strokeWidth=1;fontSize=10;fontStyle=0" parent="1" vertex="1">
          <mxGeometry x="1900" y="707.5" width="140" height="210" as="geometry" />
        </mxCell>
        <mxCell id="3le4Wn7NQjYUxHa7ABNp-45" value="Manage Admins" style="ellipse;whiteSpace=wrap;html=1;strokeWidth=1;fontStyle=0;fontSize=10;" parent="1" vertex="1">
          <mxGeometry x="1510" y="680" width="120" height="80" as="geometry" />
        </mxCell>
        <mxCell id="3le4Wn7NQjYUxHa7ABNp-46" value="Analytics" style="ellipse;whiteSpace=wrap;html=1;strokeWidth=1;fontStyle=0;fontSize=10;" parent="1" vertex="1">
          <mxGeometry x="1510" y="772.5" width="120" height="80" as="geometry" />
        </mxCell>
        <mxCell id="3le4Wn7NQjYUxHa7ABNp-47" value="Profile Management" style="ellipse;whiteSpace=wrap;html=1;strokeWidth=1;fontStyle=0;fontSize=10;" parent="1" vertex="1">
          <mxGeometry x="1510" y="860" width="120" height="80" as="geometry" />
        </mxCell>
        <mxCell id="GJCYcSGkEX14lr7tfJS9-1" value="" style="endArrow=none;html=1;rounded=0;exitX=1;exitY=0.3333333333333333;exitDx=0;exitDy=0;exitPerimeter=0;" parent="1" source="3le4Wn7NQjYUxHa7ABNp-44" edge="1">
          <mxGeometry width="50" height="50" relative="1" as="geometry">
            <mxPoint x="1620" y="530" as="sourcePoint" />
            <mxPoint x="2270" y="440" as="targetPoint" />
          </mxGeometry>
        </mxCell>
        <mxCell id="GJCYcSGkEX14lr7tfJS9-2" value="Solve Open &lt;br&gt;Quiz" style="ellipse;whiteSpace=wrap;html=1;strokeWidth=1;fontStyle=0;fontSize=10;" parent="1" vertex="1">
          <mxGeometry x="1157.5" y="450" width="120" height="80" as="geometry" />
        </mxCell>
        <mxCell id="GJCYcSGkEX14lr7tfJS9-3" value="" style="endArrow=none;html=1;rounded=0;entryX=0;entryY=0.5;entryDx=0;entryDy=0;" parent="1" target="GJCYcSGkEX14lr7tfJS9-2" edge="1">
          <mxGeometry width="50" height="50" relative="1" as="geometry">
            <mxPoint x="880" y="360" as="sourcePoint" />
            <mxPoint x="1670" y="480" as="targetPoint" />
          </mxGeometry>
        </mxCell>
        <mxCell id="GJCYcSGkEX14lr7tfJS9-4" value="" style="endArrow=none;html=1;rounded=0;entryX=0;entryY=0.5;entryDx=0;entryDy=0;" parent="1" target="GJCYcSGkEX14lr7tfJS9-2" edge="1">
          <mxGeometry width="50" height="50" relative="1" as="geometry">
            <mxPoint x="880" y="780" as="sourcePoint" />
            <mxPoint x="1630" y="490" as="targetPoint" />
          </mxGeometry>
        </mxCell>
        <mxCell id="GJCYcSGkEX14lr7tfJS9-10" value="&lt;font style=&quot;font-size: 8px;&quot;&gt;&amp;lt;&amp;lt;include&amp;gt;&amp;gt;&lt;/font&gt;" style="text;html=1;strokeColor=none;fillColor=none;align=center;verticalAlign=middle;whiteSpace=wrap;rounded=0;rotation=0;" parent="1" vertex="1">
          <mxGeometry x="1219" y="142.5" width="43" height="33.75" as="geometry" />
        </mxCell>
      </root>
    </mxGraphModel>
  </diagram>
</mxfile>
